<?xml version="1.0" encoding="utf-8"?>
<!-- Generator: Adobe Illustrator 22.1.0, SVG Export Plug-In . SVG Version: 6.00 Build 0)  -->
<svg version="1.1" id="レイヤー_1" xmlns="http://www.w3.org/2000/svg" xmlns:xlink="http://www.w3.org/1999/xlink" x="0px"
	 y="0px" width="75px" height="40px" viewBox="0 0 75 40" style="enable-background:new 0 0 75 40;" xml:space="preserve">
<style type="text/css">
	.st0{fill:none;stroke:#F0D063;stroke-width:1.5;stroke-miterlimit:10;}
	.st1{fill:#F0D063;}
</style>
<path class="st0" d="M59.6,21.4L20,33.6c-3.1,1-6.6-0.8-7.5-4l-0.9-2.9c-0.9-3.1,0.8-6.5,3.9-7.5L55.2,7c3.2-0.9,6.5,0.8,7.5,3.9
	l0.9,2.8C64.6,17,62.8,20.4,59.6,21.4z"/>
<g>
	<path class="st1" d="M22.2,21.8l-2.6,0.8c-0.5,0.1-0.6,0.5-0.5,0.9c0.3,0.8,4.3,1,4.8,2.9c0.4,1.3,0.3,2.9-1.7,3.5l-3,1l-0.5-1.8
		l3-0.9c0.4-0.1,0.5-0.5,0.4-0.9c-0.3-1-4.2-0.8-4.9-3.1c-0.5-1.7,0.5-2.8,1.5-3.1l3-1L22.2,21.8z"/>
	<path class="st1" d="M28.9,19.9l-1.1,0.4c-1.5,0.5-1.9,1.7-1.8,2.6l3.5-1.1l0.5,1.7l-3.5,1.1c0.4,0.8,1.5,1.6,2.9,1.1l1.1-0.4
		l0.5,1.8l-1,0.3c-3.1,1-5.1-1-5.9-3.1c-0.7-2.3,0-5,3-5.9l1-0.3L28.9,19.9z"/>
	<path class="st1" d="M35.7,17.8l-1.4,0.5c-1.3,0.4-1.9,2.1-1.5,3.5c0.4,1.3,1.9,2.4,3.2,2l1.4-0.5l0.5,1.8l-1.5,0.5
		c-2.2,0.6-4.8-0.5-5.7-3.2s0.7-5.2,2.9-5.9l1.5-0.4L35.7,17.8z"/>
	<path class="st1" d="M38.9,24.8L37,18.6c-0.4-1.4-0.2-3.3,2.3-4c1.8-0.6,3.2,0.6,3.6,1.9c0.3,0.9,0.1,1.6-0.5,2.3
		c1.3,0,1.5,0.6,1.9,1.7l0.8,2.6l-1.9,0.6L42.4,21c-0.2-0.7-0.6-1-1.3-0.7l-0.8,0.2l-0.5-1.7c0.8-0.3,1.5-0.6,1.3-1.5
		c-0.2-0.7-0.8-0.9-1.4-0.8c-0.5,0.2-1,0.7-0.8,1.4l2,6.4L38.9,24.8z"/>
	<path class="st1" d="M49,13.7l-1.2,0.4c-1.5,0.4-1.8,1.7-1.8,2.6l3.5-1.1l0.5,1.7l-3.5,1.1c0.4,0.8,1.5,1.6,2.9,1.1l1.2-0.4
		l0.5,1.8l-1,0.3c-3.1,1-5.2-1-5.8-3.1c-0.7-2.3,0-4.9,3-5.9l1-0.3L49,13.7z"/>
	<path class="st1" d="M51.6,12.9l-2,0.6l-0.6-1.8l5.8-1.8l0.5,1.8l-2,0.6l2.3,7.3l-1.9,0.6L51.6,12.9z"/>
</g>
</svg>
